<?xml version="1.0" encoding="utf-8"?>
<!-- Generator: Adobe Illustrator 24.2.3, SVG Export Plug-In . SVG Version: 6.00 Build 0)  -->
<svg version="1.1" id="Шар_1" xmlns="http://www.w3.org/2000/svg" xmlns:xlink="http://www.w3.org/1999/xlink" x="0px" y="0px"
	 viewBox="0 0 28 28" style="enable-background:new 0 0 28 28;" xml:space="preserve">
<style type="text/css">
	.st0{fill:#3E5288;}
</style>
<path class="st0" d="M9,18.1L9,18.1C9,18.1,9,18.1,9,18.1l14.9,0c0.4,0,0.7-0.2,0.8-0.6L28,6c0.1-0.2,0-0.5-0.1-0.7
	C27.7,5.1,27.4,5,27.2,5H7.1L6.5,2.3C6.5,2,6.1,1.7,5.7,1.7H0.8C0.4,1.7,0,2.1,0,2.5s0.4,0.8,0.8,0.8h4.3C5.2,3.8,7.9,16,8,16.7
	c-0.9,0.4-1.5,1.2-1.5,2.3c0,1.4,1.1,2.5,2.5,2.5h14.9c0.5,0,0.8-0.4,0.8-0.8s-0.4-0.8-0.8-0.8H9c-0.5,0-0.8-0.4-0.8-0.8
	C8.2,18.5,8.6,18.1,9,18.1z M26.1,6.6l-2.8,9.8H9.7L7.5,6.6H26.1z"/>
<path class="st0" d="M8.2,23.8c0,1.4,1.1,2.5,2.5,2.5s2.5-1.1,2.5-2.5s-1.1-2.5-2.5-2.5S8.2,22.5,8.2,23.8z M10.7,23
	c0.5,0,0.8,0.4,0.8,0.8s-0.4,0.8-0.8,0.8c-0.5,0-0.8-0.4-0.8-0.8S10.2,23,10.7,23z"/>
<path class="st0" d="M19.8,23.8c0,1.4,1.1,2.5,2.5,2.5c1.4,0,2.5-1.1,2.5-2.5s-1.1-2.5-2.5-2.5C20.9,21.4,19.8,22.5,19.8,23.8z
	 M22.3,23c0.5,0,0.8,0.4,0.8,0.8s-0.4,0.8-0.8,0.8c-0.5,0-0.8-0.4-0.8-0.8S21.8,23,22.3,23z"/>
<path class="st0" d="M16.5,15.8c-2.4,0-4.3-1.9-4.3-4.3s1.9-4.3,4.3-4.3s4.3,1.9,4.3,4.3S18.9,15.8,16.5,15.8z M16.5,7.9
	c-2,0-3.6,1.6-3.6,3.6s1.6,3.6,3.6,3.6s3.6-1.6,3.6-3.6S18.5,7.9,16.5,7.9z"/>
<path class="st0" d="M15.9,13.2c-0.1,0-0.2,0-0.2-0.1l-1.3-1.3c-0.1-0.1-0.1-0.3,0-0.5c0.1-0.1,0.3-0.1,0.5,0l1.1,1.1l2.1-2.4
	c0.1-0.1,0.3-0.2,0.5,0c0.1,0.1,0.2,0.3,0,0.5l-2.3,2.6C16,13.1,16,13.2,15.9,13.2C15.9,13.2,15.9,13.2,15.9,13.2z"/>
</svg>
